<svg xmlns="http://www.w3.org/2000/svg" width="17" height="22"><defs><style>.cls-1{fill-rule:evenodd;filter:url(#filter)}</style><filter id="filter" x="0" y="0" width="17" height="22" filterUnits="userSpaceOnUse"><feFlood result="flood" flood-color="#fff"/><feComposite result="composite" operator="in" in2="SourceGraphic"/><feBlend result="blend" in2="SourceGraphic"/></filter></defs><path id="корзина" class="cls-1" d="M17 19.067L15.776 4.8a.531.531 0 0 0-.529-.5h-2.581A4.246 4.246 0 0 0 8.5 0a4.246 4.246 0 0 0-4.166 4.3H1.753a.538.538 0 0 0-.528.5L0 19.067v.05A3.029 3.029 0 0 0 3.149 22h10.7A3.029 3.029 0 0 0 17 19.117v-.05zM8.5 1.093A3.168 3.168 0 0 1 11.609 4.3H5.391A3.168 3.168 0 0 1 8.5 1.093zM13.851 20.9H3.149a1.963 1.963 0 0 1-2.092-1.767L2.237 5.4h2.1v1.914a.529.529 0 1 0 1.057 0V5.4h6.219v1.914a.529.529 0 1 0 1.057 0V5.4h2.1l1.18 13.744a1.962 1.962 0 0 1-2.099 1.756z"/></svg>