<svg xmlns="http://www.w3.org/2000/svg" width="31" height="29"><defs><style>.cls-1{fill-rule:evenodd}</style></defs><path id="Forma_1" data-name="Forma 1" class="cls-1" d="M30.953 8.645C30.5 3.632 26.974 0 22.561 0a8.333 8.333 0 0 0-7.147 4.143A8.032 8.032 0 0 0 8.437 0C4.024 0 .5 3.632.045 8.645a8.97 8.97 0 0 0 .264 3.287A14.115 14.115 0 0 0 4.6 19.14L15.406 29 26.4 19.14a14.115 14.115 0 0 0 4.293-7.209 8.99 8.99 0 0 0 .26-3.286zm-1.425 3.011a12.91 12.91 0 0 1-3.93 6.591l-10.185 9.142L5.4 18.251a12.918 12.918 0 0 1-3.93-6.595 7.838 7.838 0 0 1-.248-2.821l.009-.061C1.619 4.383 4.649 1.2 8.437 1.2a6.992 6.992 0 0 1 6.424 4.5l.549 1.31.55-1.31a7.205 7.205 0 0 1 6.6-4.509c3.788 0 6.819 3.188 7.214 7.636a7.831 7.831 0 0 1-.246 2.83z"/></svg>