<svg xmlns="http://www.w3.org/2000/svg" width="22" height="22"><defs><style>.cls-1{fill-rule:evenodd;filter:url(#filter)}</style><filter id="filter" x="0" y="0" width="22" height="22" filterUnits="userSpaceOnUse"><feFlood result="flood" flood-color="#fff"/><feComposite result="composite" operator="in" in2="SourceGraphic"/><feBlend result="blend" in2="SourceGraphic"/></filter></defs><path id="Фэйсбук_копия" data-name="Фэйсбук копия" class="cls-1" d="M11 0a11 11 0 1 0 11 11A11.012 11.012 0 0 0 11 0zm0 20.741A9.741 9.741 0 1 1 20.742 11 9.753 9.753 0 0 1 11 20.741zM13.548 5.03h-1.492a2.217 2.217 0 0 0-2.214 2.215v1.678h-1.39a.629.629 0 0 0 0 1.259h1.39v5.827a.629.629 0 0 0 1.258 0v-5.828h2.15a.629.629 0 0 0 0-1.259H11.1V7.245a.956.956 0 0 1 .956-.956h1.491a.63.63 0 0 0 .001-1.259z"/></svg>