<svg xmlns="http://www.w3.org/2000/svg" width="25.25" height="25"><defs><style>.cls-1{fill-rule:evenodd}</style></defs><path id="Фэйсбук_копия" data-name="Фэйсбук копия" class="cls-1" d="M979.37 368A12.5 12.5 0 1 0 992 380.5a12.578 12.578 0 0 0-12.63-12.5zm0 23.569a11.07 11.07 0 1 1 11.185-11.07 11.141 11.141 0 0 1-11.185 11.071zm2.926-17.854h-1.713a2.532 2.532 0 0 0-2.542 2.517v1.906h-1.6a.716.716 0 1 0 0 1.431h1.6v6.621a.723.723 0 0 0 1.445 0v-6.62h2.468a.716.716 0 1 0 0-1.431h-2.468v-1.906a1.092 1.092 0 0 1 1.1-1.085h1.714a.716.716 0 1 0 0-1.432z" transform="translate(-966.75 -368)"/></svg>