<svg xmlns="http://www.w3.org/2000/svg" width="25.25" height="25"><defs><style>.cls-1{fill-rule:evenodd}</style></defs><path id="Инстаграм_копия" data-name="Инстаграм копия" class="cls-1" d="M942.63 368a12.5 12.5 0 1 0 12.629 12.5A12.579 12.579 0 0 0 942.63 368zm0 23.569a11.07 11.07 0 1 1 11.184-11.07 11.141 11.141 0 0 1-11.184 11.071zm4.6-17.188h-9.2a1.519 1.519 0 0 0-1.526 1.51v9.216a1.52 1.52 0 0 0 1.526 1.51h9.2a1.52 1.52 0 0 0 1.525-1.51v-9.216a1.519 1.519 0 0 0-1.526-1.509zm.08 10.726a.08.08 0 0 1-.08.08h-9.2a.08.08 0 0 1-.081-.08v-9.216a.08.08 0 0 1 .081-.079h9.2a.079.079 0 0 1 .08.079v9.216zm-2.572-8.225h1.655v1.5h-1.655v-1.5zm-2.107 2.607a1.615 1.615 0 1 1-1.631 1.617 1.624 1.624 0 0 1 1.63-1.616zm2.6 1.608a2.6 2.6 0 0 1-5.2 0v-1.147h-1.164v4.271h7.526v-4.271h-1.155z" transform="translate(-930 -368)"/></svg>