<svg xmlns="http://www.w3.org/2000/svg" width="22" height="22"><defs><style>.cls-1{fill-rule:evenodd;filter:url(#filter)}</style><filter id="filter" x="0" y="0" width="22" height="22" filterUnits="userSpaceOnUse"><feFlood result="flood" flood-color="#fff"/><feComposite result="composite" operator="in" in2="SourceGraphic"/><feBlend result="blend" in2="SourceGraphic"/></filter></defs><path id="Инстаграм_копия" data-name="Инстаграм копия" class="cls-1" d="M11 0a11 11 0 1 0 11 11A11.012 11.012 0 0 0 11 0zm0 20.741A9.741 9.741 0 1 1 20.742 11 9.753 9.753 0 0 1 11 20.741zm4.006-15.125H6.994a1.33 1.33 0 0 0-1.328 1.329v8.11a1.33 1.33 0 0 0 1.329 1.328h8.011a1.33 1.33 0 0 0 1.328-1.328v-8.11a1.33 1.33 0 0 0-1.328-1.329zm.07 9.439a.07.07 0 0 1-.07.07H6.994a.07.07 0 0 1-.07-.07v-8.11a.07.07 0 0 1 .07-.07h8.011a.07.07 0 0 1 .07.07v8.11zm-2.24-7.238h1.441V9.14h-1.441V7.817zM11 10.112a1.421 1.421 0 1 1-1.421 1.422A1.421 1.421 0 0 1 11 10.112zm2.267 1.415a2.267 2.267 0 1 1-4.533 0v-1.01H7.723v3.759h6.554v-3.759h-1.005z"/></svg>