<svg xmlns="http://www.w3.org/2000/svg" width="19" height="22"><defs><style>.cls-1{fill-rule:evenodd;filter:url(#filter)}</style><filter id="filter" x="0" y="0" width="19" height="22" filterUnits="userSpaceOnUse"><feFlood result="flood" flood-color="#fff"/><feComposite result="composite" operator="in" in2="SourceGraphic"/><feBlend result="blend" in2="SourceGraphic"/></filter></defs><path id="Авторизация" class="cls-1" d="M13.463 12.907l-.063-.025a11.254 11.254 0 0 0-.9-.341c-.127-.04-.255-.077-.385-.114-.2-.055-.4-.1-.6-.148a7.144 7.144 0 0 0-.211-.039l-.044-.01q-.182-.034-.366-.06l-.035-.005h-.035c-.1-.015-.2-.028-.309-.04l-.36-.028a9.994 9.994 0 0 0-1.336 0l-.128.01h-.059l-.149.013a8.02 8.02 0 0 0-.409.053l-.04.005c-.093.015-.186.032-.277.048s-.2.037-.3.058a9.4 9.4 0 0 0-1.006.274l-.1.033c-.292.1-.583.214-.864.339l-.075.035A9.153 9.153 0 0 0 0 21.206c0 .081.005.159.011.239L.035 22h18.929l.026-.549c.005-.081.01-.162.01-.245a9.148 9.148 0 0 0-5.537-8.299zm-12.535 8.2a8.26 8.26 0 0 1 4.915-7.352l.095-.036.011-.01c.231-.1.469-.194.71-.275l.077-.026c.131-.044.262-.084.4-.121a8.067 8.067 0 0 1 .786-.18c.073-.013.146-.027.22-.038l.036-.006c.133-.02.266-.039.4-.052l.3-.025a8.505 8.505 0 0 1 1.237 0l.3.024.234.029.106.015q.166.024.333.054l.052.009a6.759 6.759 0 0 1 .725.168l.349.1q.217.069.429.151c.136.051.27.106.4.164l.023.011a8.26 8.26 0 0 1 5.006 7.393H.928zm6.279-10.163c.07.028.141.053.213.077l.151.053c.058.021.116.042.176.06a6.093 6.093 0 0 0 1.72.258h.046c.2 0 .4-.01.6-.03.067-.007.132-.016.2-.027l.145-.021a3.97 3.97 0 0 0 .249-.038c.059-.011.115-.026.172-.041l.159-.039c.078-.018.157-.037.234-.06.048-.015.1-.032.143-.049l.128-.044c.091-.03.183-.061.275-.1l.1-.047.041-.019c.126-.054.251-.109.375-.174l.081-.046c.139-.076.278-.154.419-.246.073-.048.142-.1.211-.154l.238-.178a5.57 5.57 0 0 0 2.151-4.338v-.047A5.819 5.819 0 0 0 9.513 0a5.833 5.833 0 0 0-5.9 5.337l-.013.074c0 .094-.009.189-.009.289a5.686 5.686 0 0 0 3.616 5.244zM4.529 5.473l.005-.081A4.918 4.918 0 0 1 9.512.893a4.9 4.9 0 0 1 5 4.762v.047a4.733 4.733 0 0 1-1.822 3.7l-.22.162c-.049.038-.1.076-.161.118a3.626 3.626 0 0 1-.349.2l-.066.039c-.1.052-.206.1-.315.144l-.123.057c-.07.028-.145.053-.218.078l-.153.053c-.03.011-.06.022-.089.031-.057.017-.116.03-.174.044l-.185.046c-.04.01-.079.021-.115.028-.062.012-.125.02-.187.028l-.176.025c-.043.007-.085.014-.133.019-.154.016-.31.024-.468.025h-.051a5.147 5.147 0 0 1-1.484-.216c-.041-.012-.081-.028-.123-.043l-.174-.061c-.054-.018-.108-.036-.16-.057A4.8 4.8 0 0 1 4.518 5.7c0-.079.006-.153.011-.227z"/></svg>