<svg xmlns="http://www.w3.org/2000/svg" width="13" height="22"><defs><style>.cls-1{fill-rule:evenodd;filter:url(#filter)}</style><filter id="filter" x="0" y="-.031" width="13.031" height="22.031" filterUnits="userSpaceOnUse"><feFlood result="flood" flood-color="#fff"/><feComposite result="composite" operator="in" in2="SourceGraphic"/><feBlend result="blend" in2="SourceGraphic"/></filter></defs><path class="cls-1" d="M12.657 11.061A18.984 18.984 0 0 0 9.31 3.338 10.579 10.579 0 0 0 6.478.563a6.793 6.793 0 0 0-.239-.137A3.478 3.478 0 0 0 3.5.123a.094.094 0 0 0-.025.01c-.352.12-.719.2-1.1.294-.262.058-.531.123-.795.194A1.846 1.846 0 0 0 .1 3.019l.915 3.159A1.887 1.887 0 0 0 1.941 7.4a2.221 2.221 0 0 0 1.608.15l2.022-.5c.079.127.166.249.247.364a4.8 4.8 0 0 1 .27.412A13.885 13.885 0 0 1 7.63 12.3a7.824 7.824 0 0 1 .089 2.215c-.512.1-1.011.228-1.5.355-.171.046-.347.089-.522.132a2.117 2.117 0 0 0-1.338.88 1.834 1.834 0 0 0-.144 1.518l.452 1.567c.053.184.1.361.151.543.1.354.2.72.312 1.06a1.939 1.939 0 0 0 .943 1.19 2.264 2.264 0 0 0 1.6.17l2.112-.525a3.179 3.179 0 0 0 1.836-1.2 6.8 6.8 0 0 0 1.154-2.932 16.676 16.676 0 0 0-.118-6.212zm-1.871 8.611a2.191 2.191 0 0 1-1.272.826l-2.1.522a1.187 1.187 0 0 1-.835-.071.988.988 0 0 1-.465-.636c-.112-.336-.2-.673-.3-1.034-.05-.182-.1-.366-.154-.553l-.46-1.567a.978.978 0 0 1 .049-.8 1.126 1.126 0 0 1 .723-.442c.175-.043.352-.09.527-.134.527-.133 1.023-.262 1.542-.36l.028-.007a.771.771 0 0 0 .638-.643c0-.012 0-.021.006-.033a8.429 8.429 0 0 0-.079-2.577A14.649 14.649 0 0 0 7 7.378a5.438 5.438 0 0 0-.324-.494 4.69 4.69 0 0 1-.276-.411l-.027-.041a.834.834 0 0 0-.3-.27A.935.935 0 0 0 5.4 6.1l-2.112.525a1.169 1.169 0 0 1-.835-.055A.965.965 0 0 1 2 5.932l-.914-3.166a.925.925 0 0 1 .789-1.25c.243-.069.49-.127.751-.187.391-.092.8-.184 1.2-.32a2.422 2.422 0 0 1 1.913.22c.061.034.12.071.179.108a9.6 9.6 0 0 1 2.555 2.519 18.031 18.031 0 0 1 3.185 7.351 15.965 15.965 0 0 1 .115 5.9 5.931 5.931 0 0 1-.987 2.565z"/></svg>