<svg xmlns="http://www.w3.org/2000/svg" width="21" height="22"><defs><style>.cls-1{fill-rule:evenodd;filter:url(#filter)}</style><filter id="filter" x="0" y="0" width="21" height="22" filterUnits="userSpaceOnUse"><feFlood result="flood" flood-color="#fff"/><feComposite result="composite" operator="in" in2="SourceGraphic"/><feBlend result="blend" in2="SourceGraphic"/></filter></defs><path id="Поиск" class="cls-1" d="M20.882 21.3l-6.118-6.418A8.734 8.734 0 0 0 8.645 0a8.723 8.723 0 0 0 0 17.445 8.56 8.56 0 0 0 5.51-2.007l6.133 6.434a.409.409 0 0 0 .582.012.419.419 0 0 0 .012-.584zM8.645 16.614a7.892 7.892 0 0 1 0-15.784 7.892 7.892 0 0 1 0 15.784z"/></svg>