<svg xmlns="http://www.w3.org/2000/svg" width="40" height="40"><defs><style>.cls-1{fill-rule:evenodd;filter:url(#filter)}</style><filter id="filter" x="0" y="0" width="40" height="40" filterUnits="userSpaceOnUse"><feFlood result="flood" flood-color="#fff"/><feComposite result="composite" operator="in" in2="SourceGraphic"/><feBlend result="blend" in2="SourceGraphic"/></filter></defs><path id="Forma_1" data-name="Forma 1" class="cls-1" d="M15.565 31.13a15.281 15.281 0 0 0 9.935-3.624l12.083 12.08a1.382 1.382 0 0 0 1 .414 1.441 1.441 0 0 0 1-.414 1.417 1.417 0 0 0 0-2L27.505 25.5a15.539 15.539 0 1 0-11.94 5.63zm0-28.3A12.735 12.735 0 1 1 2.83 15.565 12.748 12.748 0 0 1 15.565 2.83zM14.15 24.78a1.415 1.415 0 1 0 2.83 0v-7.8h7.8a1.415 1.415 0 0 0 0-2.83h-7.8v-7.8a1.415 1.415 0 1 0-2.83 0v7.8h-7.8a1.415 1.415 0 0 0 0 2.83h7.8v7.8z"/></svg>