<svg xmlns="http://www.w3.org/2000/svg" xmlns:xlink="http://www.w3.org/1999/xlink" width="17" height="22" viewBox="0 0 17 22">
  <metadata><?xpacket begin="﻿" id="W5M0MpCehiHzreSzNTczkc9d"?>
<x:xmpmeta xmlns:x="adobe:ns:meta/" x:xmptk="Adobe XMP Core 5.6-c138 79.159824, 2016/09/14-01:09:01        ">
   <rdf:RDF xmlns:rdf="http://www.w3.org/1999/02/22-rdf-syntax-ns#">
      <rdf:Description rdf:about=""/>
   </rdf:RDF>
</x:xmpmeta>
                                                                                                    
                                                                                                    
                                                                                                    
                                                                                                    
                                                                                                    
                                                                                                    
                                                                                                    
                                                                                                    
                                                                                                    
                                                                                                    
                                                                                                    
                                                                                                    
                                                                                                    
                                                                                                    
                                                                                                    
                                                                                                    
                                                                                                    
                                                                                                    
                                                                                                    
                                                                                                    
                           
<?xpacket end="w"?></metadata>
<defs>
    <style>
      .cls-1 {
        fill-rule: evenodd;
        filter: url(#filter);
      }
    </style>
    <filter id="filter" x="0" y="0" width="17" height="22" filterUnits="userSpaceOnUse">
      <feFlood result="flood" flood-color="#fff"/>
      <feComposite result="composite" operator="in" in2="SourceGraphic"/>
      <feBlend result="blend" in2="SourceGraphic"/>
    </filter>
  </defs>
  <path id="корзина" class="cls-1" d="M17,19.067L15.776,4.8a0.531,0.531,0,0,0-.529-0.5H12.666A4.246,4.246,0,0,0,8.5,0,4.246,4.246,0,0,0,4.334,4.3H1.753a0.538,0.538,0,0,0-.528.5L0,19.067v0.05A3.029,3.029,0,0,0,3.149,22h10.7A3.029,3.029,0,0,0,17,19.117v-0.05ZM8.5,1.093A3.168,3.168,0,0,1,11.609,4.3H5.391A3.168,3.168,0,0,1,8.5,1.093ZM13.851,20.9H3.149a1.963,1.963,0,0,1-2.092-1.767L2.237,5.4h2.1V7.314a0.529,0.529,0,1,0,1.057,0V5.4h6.219V7.314a0.529,0.529,0,1,0,1.057,0V5.4h2.1l1.18,13.744A1.962,1.962,0,0,1,13.851,20.9Z"/>
</svg>
