<svg xmlns="http://www.w3.org/2000/svg" width="31" height="29" viewBox="0 0 31 29">
  <metadata><?xpacket begin="﻿" id="W5M0MpCehiHzreSzNTczkc9d"?>
<x:xmpmeta xmlns:x="adobe:ns:meta/" x:xmptk="Adobe XMP Core 5.6-c138 79.159824, 2016/09/14-01:09:01        ">
   <rdf:RDF xmlns:rdf="http://www.w3.org/1999/02/22-rdf-syntax-ns#">
      <rdf:Description rdf:about=""/>
   </rdf:RDF>
</x:xmpmeta>
                                                                                                    
                                                                                                    
                                                                                                    
                                                                                                    
                                                                                                    
                                                                                                    
                                                                                                    
                                                                                                    
                                                                                                    
                                                                                                    
                                                                                                    
                                                                                                    
                                                                                                    
                                                                                                    
                                                                                                    
                                                                                                    
                                                                                                    
                                                                                                    
                                                                                                    
                                                                                                    
                           
<?xpacket end="w"?></metadata>
<defs>
    <style>
      .cls-1 {
        fill-rule: evenodd;
      }
    </style>
  </defs>
  <path id="Forma_1" data-name="Forma 1" class="cls-1" d="M30.953,8.645C30.5,3.632,26.974,0,22.561,0a8.333,8.333,0,0,0-7.147,4.143A8.032,8.032,0,0,0,8.437,0C4.024,0,.5,3.632.045,8.645a8.97,8.97,0,0,0,.264,3.287A14.115,14.115,0,0,0,4.6,19.14L15.406,29,26.4,19.14a14.115,14.115,0,0,0,4.293-7.209A8.99,8.99,0,0,0,30.953,8.645Zm-1.425,3.011a12.91,12.91,0,0,1-3.93,6.591L15.413,27.389,5.4,18.251A12.918,12.918,0,0,1,1.47,11.656a7.838,7.838,0,0,1-.248-2.821l0.009-.061C1.619,4.383,4.649,1.2,8.437,1.2A6.992,6.992,0,0,1,14.861,5.7l0.549,1.31L15.96,5.7a7.205,7.205,0,0,1,6.6-4.509c3.788,0,6.819,3.188,7.214,7.636A7.831,7.831,0,0,1,29.528,11.657Z"/>
</svg>
