<svg xmlns="http://www.w3.org/2000/svg" xmlns:xlink="http://www.w3.org/1999/xlink" width="23" height="22" viewBox="0 0 23 22">
  <metadata><?xpacket begin="﻿" id="W5M0MpCehiHzreSzNTczkc9d"?>
<x:xmpmeta xmlns:x="adobe:ns:meta/" x:xmptk="Adobe XMP Core 5.6-c138 79.159824, 2016/09/14-01:09:01        ">
   <rdf:RDF xmlns:rdf="http://www.w3.org/1999/02/22-rdf-syntax-ns#">
      <rdf:Description rdf:about=""/>
   </rdf:RDF>
</x:xmpmeta>
                                                                                                    
                                                                                                    
                                                                                                    
                                                                                                    
                                                                                                    
                                                                                                    
                                                                                                    
                                                                                                    
                                                                                                    
                                                                                                    
                                                                                                    
                                                                                                    
                                                                                                    
                                                                                                    
                                                                                                    
                                                                                                    
                                                                                                    
                                                                                                    
                                                                                                    
                                                                                                    
                           
<?xpacket end="w"?></metadata>
<defs>
    <style>
      .cls-1 {
        fill-rule: evenodd;
        filter: url(#filter);
      }
    </style>
    <filter id="filter" x="0" y="0" width="23" height="22" filterUnits="userSpaceOnUse">
      <feFlood result="flood" flood-color="#fff"/>
      <feComposite result="composite" operator="in" in2="SourceGraphic"/>
      <feBlend result="blend" in2="SourceGraphic"/>
    </filter>
  </defs>
  <path id="Избранное" class="cls-1" d="M22.965,6.558C22.63,2.756,20.013,0,16.739,0a6.16,6.16,0,0,0-5.3,3.143A5.94,5.94,0,0,0,6.26,0C2.986,0,.369,2.755.034,6.558a6.954,6.954,0,0,0,.2,2.493A10.76,10.76,0,0,0,3.415,14.52L11.431,22l8.153-7.482a10.763,10.763,0,0,0,3.186-5.469A6.972,6.972,0,0,0,22.965,6.558ZM21.908,8.843a9.84,9.84,0,0,1-2.916,5l-7.556,6.935L4.009,13.845a9.848,9.848,0,0,1-2.919-5A6.078,6.078,0,0,1,.907,6.7l0.007-.046C1.2,3.326,3.449.907,6.26,0.907a5.194,5.194,0,0,1,4.766,3.42l0.408,0.994,0.408-.994a5.349,5.349,0,0,1,4.9-3.42c2.81,0,5.059,2.419,5.353,5.793A6.075,6.075,0,0,1,21.908,8.843Z"/>
</svg>
