<svg xmlns="http://www.w3.org/2000/svg" xmlns:xlink="http://www.w3.org/1999/xlink" width="22" height="22" viewBox="0 0 22 22">
  <metadata><?xpacket begin="﻿" id="W5M0MpCehiHzreSzNTczkc9d"?>
<x:xmpmeta xmlns:x="adobe:ns:meta/" x:xmptk="Adobe XMP Core 5.6-c138 79.159824, 2016/09/14-01:09:01        ">
   <rdf:RDF xmlns:rdf="http://www.w3.org/1999/02/22-rdf-syntax-ns#">
      <rdf:Description rdf:about=""/>
   </rdf:RDF>
</x:xmpmeta>
                                                                                                    
                                                                                                    
                                                                                                    
                                                                                                    
                                                                                                    
                                                                                                    
                                                                                                    
                                                                                                    
                                                                                                    
                                                                                                    
                                                                                                    
                                                                                                    
                                                                                                    
                                                                                                    
                                                                                                    
                                                                                                    
                                                                                                    
                                                                                                    
                                                                                                    
                                                                                                    
                           
<?xpacket end="w"?></metadata>
<defs>
    <style>
      .cls-1 {
        fill-rule: evenodd;
        filter: url(#filter);
      }
    </style>
    <filter id="filter" x="0" y="0" width="22" height="22" filterUnits="userSpaceOnUse">
      <feFlood result="flood" flood-color="#fff"/>
      <feComposite result="composite" operator="in" in2="SourceGraphic"/>
      <feBlend result="blend" in2="SourceGraphic"/>
    </filter>
  </defs>
  <path id="Фэйсбук_копия" data-name="Фэйсбук копия" class="cls-1" d="M11,0A11,11,0,1,0,22,11,11.012,11.012,0,0,0,11,0Zm0,20.741A9.741,9.741,0,1,1,20.742,11,9.753,9.753,0,0,1,11,20.741ZM13.548,5.03H12.056A2.217,2.217,0,0,0,9.842,7.245V8.923H8.452a0.629,0.629,0,0,0,0,1.259h1.39v5.827a0.629,0.629,0,0,0,1.258,0V10.181h2.15a0.629,0.629,0,0,0,0-1.259H11.1V7.245a0.956,0.956,0,0,1,.956-0.956h1.491A0.63,0.63,0,0,0,13.548,5.03Z"/>
</svg>
