<svg xmlns="http://www.w3.org/2000/svg" width="25.25" height="25" viewBox="0 0 25.25 25">
  <metadata><?xpacket begin="﻿" id="W5M0MpCehiHzreSzNTczkc9d"?>
<x:xmpmeta xmlns:x="adobe:ns:meta/" x:xmptk="Adobe XMP Core 5.6-c138 79.159824, 2016/09/14-01:09:01        ">
   <rdf:RDF xmlns:rdf="http://www.w3.org/1999/02/22-rdf-syntax-ns#">
      <rdf:Description rdf:about=""/>
   </rdf:RDF>
</x:xmpmeta>
                                                                                                    
                                                                                                    
                                                                                                    
                                                                                                    
                                                                                                    
                                                                                                    
                                                                                                    
                                                                                                    
                                                                                                    
                                                                                                    
                                                                                                    
                                                                                                    
                                                                                                    
                                                                                                    
                                                                                                    
                                                                                                    
                                                                                                    
                                                                                                    
                                                                                                    
                                                                                                    
                           
<?xpacket end="w"?></metadata>
<defs>
    <style>
      .cls-1 {
        fill-rule: evenodd;
      }
    </style>
  </defs>
  <path id="Фэйсбук_копия" data-name="Фэйсбук копия" class="cls-1" d="M979.37,368A12.5,12.5,0,1,0,992,380.5,12.578,12.578,0,0,0,979.37,368Zm0,23.569a11.07,11.07,0,1,1,11.185-11.07A11.141,11.141,0,0,1,979.37,391.57Zm2.926-17.854h-1.713a2.532,2.532,0,0,0-2.542,2.517v1.906h-1.6a0.716,0.716,0,1,0,0,1.431h1.6v6.621a0.723,0.723,0,0,0,1.445,0V379.57h2.468a0.716,0.716,0,1,0,0-1.431h-2.468v-1.906a1.092,1.092,0,0,1,1.1-1.085H982.3A0.716,0.716,0,1,0,982.3,373.716Z" transform="translate(-966.75 -368)"/>
</svg>
