<svg xmlns="http://www.w3.org/2000/svg" xmlns:xlink="http://www.w3.org/1999/xlink" width="22" height="22" viewBox="0 0 22 22">
  <metadata><?xpacket begin="﻿" id="W5M0MpCehiHzreSzNTczkc9d"?>
<x:xmpmeta xmlns:x="adobe:ns:meta/" x:xmptk="Adobe XMP Core 5.6-c138 79.159824, 2016/09/14-01:09:01        ">
   <rdf:RDF xmlns:rdf="http://www.w3.org/1999/02/22-rdf-syntax-ns#">
      <rdf:Description rdf:about=""/>
   </rdf:RDF>
</x:xmpmeta>
                                                                                                    
                                                                                                    
                                                                                                    
                                                                                                    
                                                                                                    
                                                                                                    
                                                                                                    
                                                                                                    
                                                                                                    
                                                                                                    
                                                                                                    
                                                                                                    
                                                                                                    
                                                                                                    
                                                                                                    
                                                                                                    
                                                                                                    
                                                                                                    
                                                                                                    
                                                                                                    
                           
<?xpacket end="w"?></metadata>
<defs>
    <style>
      .cls-1 {
        fill-rule: evenodd;
        filter: url(#filter);
      }
    </style>
    <filter id="filter" x="0" y="0" width="22" height="22" filterUnits="userSpaceOnUse">
      <feFlood result="flood" flood-color="#fff"/>
      <feComposite result="composite" operator="in" in2="SourceGraphic"/>
      <feBlend result="blend" in2="SourceGraphic"/>
    </filter>
  </defs>
  <path id="Инстаграм_копия" data-name="Инстаграм копия" class="cls-1" d="M11,0A11,11,0,1,0,22,11,11.012,11.012,0,0,0,11,0Zm0,20.741A9.741,9.741,0,1,1,20.742,11,9.753,9.753,0,0,1,11,20.741ZM15.006,5.616H6.994A1.33,1.33,0,0,0,5.666,6.945v8.11a1.33,1.33,0,0,0,1.329,1.328h8.011a1.33,1.33,0,0,0,1.328-1.328V6.945A1.33,1.33,0,0,0,15.006,5.616Zm0.07,9.439a0.07,0.07,0,0,1-.07.07H6.994a0.07,0.07,0,0,1-.07-0.07V6.945a0.07,0.07,0,0,1,.07-0.07h8.011a0.07,0.07,0,0,1,.07.07v8.11Zm-2.24-7.238h1.441V9.14H12.836V7.817ZM11,10.112a1.421,1.421,0,1,1-1.421,1.422A1.421,1.421,0,0,1,11,10.112Zm2.267,1.415a2.267,2.267,0,1,1-4.533,0l0-1.01H7.723v3.759h6.554V10.517H13.272Z"/>
</svg>
