<svg xmlns="http://www.w3.org/2000/svg" width="25.25" height="25" viewBox="0 0 25.25 25">
  <metadata><?xpacket begin="﻿" id="W5M0MpCehiHzreSzNTczkc9d"?>
<x:xmpmeta xmlns:x="adobe:ns:meta/" x:xmptk="Adobe XMP Core 5.6-c138 79.159824, 2016/09/14-01:09:01        ">
   <rdf:RDF xmlns:rdf="http://www.w3.org/1999/02/22-rdf-syntax-ns#">
      <rdf:Description rdf:about=""/>
   </rdf:RDF>
</x:xmpmeta>
                                                                                                    
                                                                                                    
                                                                                                    
                                                                                                    
                                                                                                    
                                                                                                    
                                                                                                    
                                                                                                    
                                                                                                    
                                                                                                    
                                                                                                    
                                                                                                    
                                                                                                    
                                                                                                    
                                                                                                    
                                                                                                    
                                                                                                    
                                                                                                    
                                                                                                    
                                                                                                    
                           
<?xpacket end="w"?></metadata>
<defs>
    <style>
      .cls-1 {
        fill-rule: evenodd;
      }
    </style>
  </defs>
  <path id="Инстаграм_копия" data-name="Инстаграм копия" class="cls-1" d="M942.63,368a12.5,12.5,0,1,0,12.629,12.5A12.579,12.579,0,0,0,942.63,368Zm0,23.569a11.07,11.07,0,1,1,11.184-11.07A11.141,11.141,0,0,1,942.63,391.57Zm4.6-17.188h-9.2a1.519,1.519,0,0,0-1.526,1.51v9.216a1.52,1.52,0,0,0,1.526,1.51h9.2a1.52,1.52,0,0,0,1.525-1.51v-9.216A1.519,1.519,0,0,0,947.229,374.382Zm0.08,10.726a0.08,0.08,0,0,1-.08.08h-9.2a0.08,0.08,0,0,1-.081-0.08v-9.216a0.08,0.08,0,0,1,.081-0.079h9.2a0.079,0.079,0,0,1,.08.079v9.216Zm-2.572-8.225h1.655v1.5h-1.655v-1.5Zm-2.107,2.607A1.615,1.615,0,1,1,941,381.106,1.624,1.624,0,0,1,942.63,379.49Zm2.6,1.608a2.6,2.6,0,0,1-5.2,0l0-1.147h-1.164v4.271h7.526v-4.271h-1.155Z" transform="translate(-930 -368)"/>
</svg>
