<svg xmlns="http://www.w3.org/2000/svg" xmlns:xlink="http://www.w3.org/1999/xlink" width="19" height="22" viewBox="0 0 19 22">
  <metadata><?xpacket begin="﻿" id="W5M0MpCehiHzreSzNTczkc9d"?>
<x:xmpmeta xmlns:x="adobe:ns:meta/" x:xmptk="Adobe XMP Core 5.6-c138 79.159824, 2016/09/14-01:09:01        ">
   <rdf:RDF xmlns:rdf="http://www.w3.org/1999/02/22-rdf-syntax-ns#">
      <rdf:Description rdf:about=""/>
   </rdf:RDF>
</x:xmpmeta>
                                                                                                    
                                                                                                    
                                                                                                    
                                                                                                    
                                                                                                    
                                                                                                    
                                                                                                    
                                                                                                    
                                                                                                    
                                                                                                    
                                                                                                    
                                                                                                    
                                                                                                    
                                                                                                    
                                                                                                    
                                                                                                    
                                                                                                    
                                                                                                    
                                                                                                    
                                                                                                    
                           
<?xpacket end="w"?></metadata>
<defs>
    <style>
      .cls-1 {
        fill-rule: evenodd;
        filter: url(#filter);
      }
    </style>
    <filter id="filter" x="0" y="0" width="19" height="22" filterUnits="userSpaceOnUse">
      <feFlood result="flood" flood-color="#fff"/>
      <feComposite result="composite" operator="in" in2="SourceGraphic"/>
      <feBlend result="blend" in2="SourceGraphic"/>
    </filter>
  </defs>
  <path id="Авторизация" class="cls-1" d="M13.463,12.907L13.4,12.882c-0.14-.061-0.28-0.119-0.424-0.173s-0.315-.116-0.476-0.168c-0.127-.04-0.255-0.077-0.385-0.114-0.2-.055-0.4-0.1-0.6-0.148-0.07-.014-0.14-0.027-0.211-0.039L11.26,12.23q-0.182-.034-0.366-0.06l-0.035-.005h0l-0.035,0c-0.1-.015-0.2-0.028-0.309-0.04l-0.36-.028a9.994,9.994,0,0,0-1.336,0l-0.128.01-0.059,0-0.149.013c-0.137.014-.273,0.032-0.409,0.053l-0.04.005c-0.093.015-.186,0.032-0.277,0.048s-0.2.037-.3,0.058c-0.194.042-.386,0.089-0.573,0.142-0.149.041-.3,0.086-0.433,0.132l-0.1.033c-0.292.1-.583,0.214-0.864,0.339l-0.075.035v0A9.153,9.153,0,0,0,0,21.206c0,0.081.005,0.159,0.011,0.239L0.035,22H18.964l0.026-.549C18.995,21.37,19,21.289,19,21.206A9.148,9.148,0,0,0,13.463,12.907Zm-12.535,8.2a8.26,8.26,0,0,1,4.915-7.352l0.095-.036,0.011-.01c0.231-.1.469-0.194,0.71-0.275l0.077-.026c0.131-.044.262-0.084,0.4-0.121,0.169-.048.342-0.091,0.515-0.128,0.089-.018.179-0.036,0.271-0.052,0.073-.013.146-0.027,0.22-0.038l0.036-.006c0.133-.02.266-0.039,0.4-0.052l0.3-.025a8.505,8.505,0,0,1,1.237,0l0.3,0.024,0.234,0.029,0.106,0.015q0.166,0.024.333,0.054l0.052,0.009c0.063,0.011.125,0.023,0.184,0.035,0.183,0.038.363,0.083,0.541,0.133,0.118,0.033.235,0.067,0.349,0.1q0.217,0.069.429,0.151c0.136,0.051.27,0.106,0.4,0.164l0.023,0.011a8.26,8.26,0,0,1,5.006,7.393H0.928ZM7.207,10.944c0.07,0.028.141,0.053,0.213,0.077l0.151,0.053c0.058,0.021.116,0.042,0.176,0.06a6.093,6.093,0,0,0,1.72.258H9.513c0.2,0,.4-0.01.6-0.03,0.067-.007.132-0.016,0.2-0.027l0.145-.021c0.082-.01.163-0.022,0.249-0.038,0.059-.011.115-0.026,0.172-0.041l0.159-.039c0.078-.018.157-0.037,0.234-0.06,0.048-.015.1-0.032,0.143-0.049l0.128-.044c0.091-.03.183-0.061,0.275-0.1l0.1-.047,0.041-.019c0.126-.054.251-0.109,0.375-0.174l0.081-.046c0.139-.076.278-0.154,0.419-0.246,0.073-.048.142-0.1,0.211-0.154l0.238-.178a5.57,5.57,0,0,0,2.151-4.338l0-.047A5.819,5.819,0,0,0,9.513,0a5.833,5.833,0,0,0-5.9,5.337L3.6,5.411C3.6,5.505,3.591,5.6,3.591,5.7A5.686,5.686,0,0,0,7.207,10.944ZM4.529,5.473l0.005-.081A4.918,4.918,0,0,1,9.512.893a4.9,4.9,0,0,1,5,4.762l0,0.047a4.733,4.733,0,0,1-1.822,3.7l-0.22.162c-0.049.038-.1,0.076-0.161,0.118-0.111.073-.229,0.139-0.349,0.2l-0.066.039c-0.1.052-.206,0.1-0.315,0.144l-0.123.057c-0.07.028-.145,0.053-0.218,0.078l-0.153.053c-0.03.011-.06,0.022-0.089,0.031-0.057.017-.116,0.03-0.174,0.044l-0.185.046c-0.04.01-.079,0.021-0.115,0.028-0.062.012-.125,0.02-0.187,0.028l-0.176.025c-0.043.007-.085,0.014-0.133,0.019-0.154.016-.31,0.024-0.468,0.025H9.507a5.147,5.147,0,0,1-1.484-.216C7.982,10.271,7.942,10.255,7.9,10.24l-0.174-.061c-0.054-.018-0.108-0.036-0.16-0.057A4.8,4.8,0,0,1,4.518,5.7C4.518,5.621,4.524,5.547,4.529,5.473Z"/>
</svg>
