<svg xmlns="http://www.w3.org/2000/svg" xmlns:xlink="http://www.w3.org/1999/xlink" width="13" height="22" viewBox="0 0 13 22">
  <metadata><?xpacket begin="﻿" id="W5M0MpCehiHzreSzNTczkc9d"?>
<x:xmpmeta xmlns:x="adobe:ns:meta/" x:xmptk="Adobe XMP Core 5.6-c138 79.159824, 2016/09/14-01:09:01        ">
   <rdf:RDF xmlns:rdf="http://www.w3.org/1999/02/22-rdf-syntax-ns#">
      <rdf:Description rdf:about=""/>
   </rdf:RDF>
</x:xmpmeta>
                                                                                                    
                                                                                                    
                                                                                                    
                                                                                                    
                                                                                                    
                                                                                                    
                                                                                                    
                                                                                                    
                                                                                                    
                                                                                                    
                                                                                                    
                                                                                                    
                                                                                                    
                                                                                                    
                                                                                                    
                                                                                                    
                                                                                                    
                                                                                                    
                                                                                                    
                                                                                                    
                           
<?xpacket end="w"?></metadata>
<defs>
    <style>
      .cls-1 {
        fill-rule: evenodd;
        filter: url(#filter);
      }
    </style>
    <filter id="filter" x="0" y="-0.031" width="13.031" height="22.031" filterUnits="userSpaceOnUse">
      <feFlood result="flood" flood-color="#fff"/>
      <feComposite result="composite" operator="in" in2="SourceGraphic"/>
      <feBlend result="blend" in2="SourceGraphic"/>
    </filter>
  </defs>
  <path class="cls-1" d="M12.657,11.061A18.984,18.984,0,0,0,9.31,3.338,10.579,10.579,0,0,0,6.478.563C6.4,0.516,6.321.471,6.239,0.426A3.478,3.478,0,0,0,3.5.123a0.094,0.094,0,0,0-.025.01c-0.352.12-.719,0.2-1.1,0.294C2.113,0.485,1.844.55,1.58,0.621A1.846,1.846,0,0,0,.1,3.019L1.015,6.178A1.887,1.887,0,0,0,1.941,7.4a2.221,2.221,0,0,0,1.608.15l2.022-.5c0.079,0.127.166,0.249,0.247,0.364a4.8,4.8,0,0,1,.27.412A13.885,13.885,0,0,1,7.63,12.3a7.824,7.824,0,0,1,.089,2.215c-0.512.1-1.011,0.228-1.5,0.355-0.171.046-.347,0.089-0.522,0.132a2.117,2.117,0,0,0-1.338.88A1.834,1.834,0,0,0,4.215,17.4l0.452,1.567c0.053,0.184.1,0.361,0.151,0.543,0.1,0.354.2,0.72,0.312,1.06a1.939,1.939,0,0,0,.943,1.19,2.264,2.264,0,0,0,1.6.17l2.112-.525a3.179,3.179,0,0,0,1.836-1.2,6.8,6.8,0,0,0,1.154-2.932A16.676,16.676,0,0,0,12.657,11.061Zm-1.871,8.611a2.191,2.191,0,0,1-1.272.826l-2.1.522a1.187,1.187,0,0,1-.835-0.071,0.988,0.988,0,0,1-.465-0.636c-0.112-.336-0.2-0.673-0.3-1.034-0.05-.182-0.1-0.366-0.154-0.553L5.2,17.159a0.978,0.978,0,0,1,.049-0.8,1.126,1.126,0,0,1,.723-0.442c0.175-.043.352-0.09,0.527-0.134,0.527-.133,1.023-0.262,1.542-0.36l0.028-.007a0.771,0.771,0,0,0,.638-0.643c0-.012,0-0.021.006-0.033a8.429,8.429,0,0,0-.079-2.577A14.649,14.649,0,0,0,7,7.378a5.438,5.438,0,0,0-.324-0.494A4.69,4.69,0,0,1,6.4,6.473c-0.01-.014-0.017-0.027-0.027-0.041a0.834,0.834,0,0,0-.3-0.27A0.935,0.935,0,0,0,5.4,6.1l-2.112.525A1.169,1.169,0,0,1,2.453,6.57,0.965,0.965,0,0,1,2,5.932L1.086,2.766a0.925,0.925,0,0,1,.789-1.25c0.243-.069.49-0.127,0.751-0.187,0.391-.092.8-0.184,1.2-0.32a2.422,2.422,0,0,1,1.913.22C5.8,1.263,5.859,1.3,5.918,1.337A9.6,9.6,0,0,1,8.473,3.856a18.031,18.031,0,0,1,3.185,7.351,15.965,15.965,0,0,1,.115,5.9A5.931,5.931,0,0,1,10.786,19.672Z"/>
</svg>
